<svg width="49" height="44" viewBox="0 0 49 44" fill="none" xmlns="http://www.w3.org/2000/svg">
<path d="M32.858 0.000244141H49V14.6055" fill="#512DBE"/>
<path d="M0.0250252 20.455C-0.00834174 20.9941 -0.00834174 21.5345 0.0250252 22.0737L0.0250252 20.455Z" fill="black"/>
<path d="M24.7056 0.000256177V43.9999C18.2319 44.0152 12.0121 41.7227 7.3928 37.6189C2.77351 33.5152 0.126545 27.9304 0.0249976 22.0737C-0.00540284 21.559 -0.00540284 21.0432 0.0249976 20.5285C0.517402 14.9206 3.33474 9.68847 7.91204 5.88127C12.4893 2.07406 18.4882 -0.0266967 24.7056 0.000256177Z" fill="#512DBE"/>
<path d="M49 20.455H24.7056V43.9999H49V20.455Z" fill="#F3D64F"/>
<g style="mix-blend-mode:darken" opacity="0.5">
<path d="M24.7056 20.455V43.9999C18.2319 44.0152 12.0121 41.7227 7.3928 37.619C2.77351 33.5152 0.126545 27.9304 0.0249976 22.0737C-0.00540284 21.559 -0.00540284 21.0432 0.0249976 20.5285L24.7056 20.455Z" fill="#F7D44F"/>
</g>
</svg>
