<svg width="16" height="22" viewBox="0 0 16 22" fill="none" xmlns="http://www.w3.org/2000/svg">
<path d="M15.5 8.08342C15.5 8.90592 15.2242 9.93342 14.7435 11.0838C14.2663 12.226 13.6039 13.4506 12.8685 14.656C11.3981 17.0661 9.65952 19.361 8.59587 20.706C8.28361 21.098 7.71648 21.098 7.40419 20.7061C6.34055 19.3611 4.60192 17.0661 3.13152 14.656C2.39611 13.4506 1.73369 12.226 1.25647 11.0838C0.775849 9.93342 0.5 8.90592 0.5 8.08342C0.5 3.89194 3.86435 0.5 8 0.5C12.1356 0.5 15.5 3.89194 15.5 8.08342ZM10.241 5.82642C9.64754 5.22678 8.84154 4.88895 8 4.88895C7.15846 4.88895 6.35246 5.22678 5.759 5.82642C5.16572 6.42589 4.83333 7.23786 4.83333 8.08342C4.83333 8.92898 5.16572 9.74094 5.759 10.3404C6.35246 10.9401 7.15846 11.2779 8 11.2779C8.84154 11.2779 9.64754 10.9401 10.241 10.3404C10.8343 9.74094 11.1667 8.92898 11.1667 8.08342C11.1667 7.23786 10.8343 6.42589 10.241 5.82642Z" stroke="black"/>
</svg>
