<svg width="18" height="22" viewBox="0 0 18 22" fill="none" xmlns="http://www.w3.org/2000/svg">
<path d="M9.86433 21.0169C12.2104 18.314 17.561 11.7631 17.561 8.08342C17.561 3.6207 13.628 0 8.78049 0C3.93293 0 0 3.6207 0 8.08342C0 11.7631 5.35061 18.314 7.69665 21.0169C8.25915 21.661 9.30183 21.661 9.86433 21.0169ZM8.78049 5.38895C9.55673 5.38895 10.3012 5.67283 10.8501 6.17814C11.399 6.68345 11.7073 7.3688 11.7073 8.08342C11.7073 8.79804 11.399 9.48339 10.8501 9.9887C10.3012 10.494 9.55673 10.7779 8.78049 10.7779C8.00424 10.7779 7.25979 10.494 6.71091 9.9887C6.16202 9.48339 5.85366 8.79804 5.85366 8.08342C5.85366 7.3688 6.16202 6.68345 6.71091 6.17814C7.25979 5.67283 8.00424 5.38895 8.78049 5.38895Z" fill="#EEEEEE"/>
</svg>
