<svg width="16" height="16" viewBox="0 0 16 16" fill="none" xmlns="http://www.w3.org/2000/svg">
<path d="M3.80343 0.526104L3.80364 0.526047C4.15339 0.430497 4.51718 0.598046 4.67294 0.919412L4.69159 0.964155L5.94159 3.96415L5.94167 3.96436C6.06899 4.26955 5.98129 4.62141 5.72416 4.83162L4.18355 6.09098L3.88083 6.33844L4.04801 6.69189C5.1381 8.99645 7.00352 10.8619 9.30808 11.952L9.66109 12.1189L9.90861 11.8169L11.1711 10.2763L11.1711 10.2763L11.1729 10.2741C11.3788 10.0199 11.7323 9.93048 12.0387 10.0583L12.0389 10.0584L15.0389 11.3084L15.04 11.3088C15.3877 11.4527 15.5734 11.8322 15.4739 12.1963L15.4739 12.1965L14.7243 14.9451C14.7242 14.9453 14.7242 14.9455 14.7241 14.9457C14.6333 15.2739 14.3357 15.5 14 15.5C6.54489 15.5 0.5 9.45508 0.5 1.99997C0.5 1.66431 0.726008 1.36671 1.05425 1.27588C1.05444 1.27583 1.05464 1.27577 1.05484 1.27572L3.80343 0.526104Z" stroke="black"/>
</svg>
