<svg width="18" height="16" viewBox="0 0 18 16" fill="none" xmlns="http://www.w3.org/2000/svg">
<path d="M5.65587 0.768722C5.39177 0.187472 4.6955 -0.121903 4.03011 0.0437222L1.01181 0.793722C0.415015 0.943722 0 1.43747 0 1.99997C0 9.73122 6.88034 16 15.3659 16C15.9832 16 16.5252 15.6218 16.6898 15.0781L17.513 12.3281C17.6947 11.7218 17.3552 11.0875 16.7172 10.8468L13.4245 9.59685C12.8655 9.38435 12.2172 9.53122 11.8365 9.95935L10.4508 11.5C8.0362 10.4593 6.08117 8.6781 4.93902 6.4781L6.62995 5.21872C7.09985 4.86872 7.26105 4.28122 7.02782 3.77185L5.65587 0.771847V0.768722Z" fill="#EEEEEE"/>
</svg>
